<svg viewBox="0 0 206 206" fill="none" xmlns="http://www.w3.org/2000/svg">
<rect x="0.5" y="0.5" width="205" height="205" rx="11.5" stroke="#4B4B4B" stroke-dasharray="4 4"/>
<path d="M88.25 75.25H117.75" stroke="#4B4B4B" stroke-width="2" stroke-linecap="round"/>
<path d="M103.25 60.25L103.25 89.75" stroke="#4B4B4B" stroke-width="2" stroke-linecap="round"/>
<path d="M66.0234 135.062V155.945H64.1719V135.062H66.0234ZM49.6172 143.945C49.6289 139.516 51.832 136.691 54.9375 136.68C58.0312 136.691 60.2695 139.516 60.2578 143.945C60.2695 148.387 58.0312 151.199 54.9375 151.188C51.832 151.199 49.6289 148.387 49.6172 143.945ZM51.3984 143.945C51.3984 147.332 52.8516 149.559 54.9375 149.547C57.0352 149.559 58.4766 147.332 58.4766 143.945C58.4766 140.559 57.0352 138.332 54.9375 138.32C52.8516 138.332 51.3984 140.559 51.3984 143.945ZM80.4375 137.125V150.672H70.8047V137.125H80.4375ZM72.6094 149.172H78.6328V138.602H72.6094V149.172ZM84.9141 155.945V135.062H86.7656V155.945H84.9141ZM97.7812 141.461C97.793 145 100.359 148.598 103.43 149.922L102.398 151.375C99.9609 150.273 97.8633 147.871 96.8906 144.988C95.918 148.047 93.8086 150.695 91.4297 151.891L90.3281 150.438C93.3164 149.008 95.918 145.07 95.9297 141.461V138.742H91.0078V137.219H102.75V138.742H97.7812V141.461ZM105.656 155.898V135.062H107.508V155.898H105.656ZM136.102 144.977V146.523H117.094V144.977H136.102ZM119.391 152.102C119.379 149.711 122.086 148.352 126.586 148.352C131.051 148.352 133.734 149.711 133.758 152.102C133.734 154.516 131.051 155.852 126.586 155.852C122.086 155.852 119.379 154.516 119.391 152.102ZM119.508 142.984V135.906H133.734V137.453H121.312V141.484H133.875V142.984H119.508ZM121.266 152.102C121.242 153.566 123.246 154.398 126.586 154.398C129.891 154.398 131.895 153.566 131.906 152.102C131.895 150.648 129.891 149.805 126.586 149.781C123.246 149.805 121.242 150.648 121.266 152.102ZM156.891 146.547V148.07H137.812V146.547H146.438V144.344H140.297V139.258H152.578V137.102H140.227V135.602H154.43V140.641H142.125V142.867H154.875V144.344H148.242V146.547H156.891ZM139.945 151.164V149.664H154.547V155.711H152.695V151.164H139.945Z" fill="#4B4B4B"/>
</svg>
