<svg width="44" height="44" viewBox="0 0 44 44" fill="none" xmlns="http://www.w3.org/2000/svg">
<rect width="44" height="44" rx="22" fill="#0B3B2D"/>
<path d="M26.8103 16.0598L14.0542 28.8473L13.2812 30.7186L15.1525 29.9456L27.94 17.1895L26.8103 16.0598ZM29.3627 13.508L28.81 14.0601L29.9397 15.1898L30.4923 14.6372C30.6374 14.4921 30.7188 14.2953 30.7188 14.0901C30.7188 13.885 30.6374 13.6882 30.4923 13.5431L30.4572 13.508C30.3853 13.4361 30.3 13.3791 30.2061 13.3402C30.1122 13.3013 30.0116 13.2812 29.9099 13.2812C29.8083 13.2812 29.7076 13.3013 29.6137 13.3402C29.5198 13.3791 29.4345 13.4361 29.3627 13.508Z" stroke="white" stroke-width="2.0625" stroke-linecap="round" stroke-linejoin="round"/>
</svg>
